<mxfile host="app.diagrams.net" agent="Mozilla/5.0 (Windows NT 10.0; Win64; x64) AppleWebKit/537.36 (KHTML, like Gecko) Chrome/131.0.0.0 Safari/537.36 Edg/131.0.0.0" version="25.0.3">
  <diagram name="Page-1" id="F5GtmuUOqkJSRyBV-zQ_">
    <mxGraphModel dx="1026" dy="734" grid="1" gridSize="10" guides="1" tooltips="1" connect="1" arrows="1" fold="1" page="1" pageScale="1" pageWidth="850" pageHeight="1100" math="0" shadow="0">
      <root>
        <mxCell id="0" />
        <mxCell id="1" parent="0" />
        <mxCell id="dmkmYUtVyIrdMDEeAMTl-20" value="" style="endArrow=classic;html=1;rounded=0;" edge="1" parent="1">
          <mxGeometry width="50" height="50" relative="1" as="geometry">
            <mxPoint x="340" y="410" as="sourcePoint" />
            <mxPoint x="430" y="250" as="targetPoint" />
          </mxGeometry>
        </mxCell>
        <mxCell id="dmkmYUtVyIrdMDEeAMTl-1" value="" style="verticalLabelPosition=bottom;shadow=0;dashed=0;align=center;html=1;verticalAlign=top;shape=mxgraph.electrical.radio.aerial_-_antenna_2;rotation=0;" vertex="1" parent="1">
          <mxGeometry x="220" y="100" width="79" height="100" as="geometry" />
        </mxCell>
        <mxCell id="dmkmYUtVyIrdMDEeAMTl-2" value="" style="verticalLabelPosition=bottom;shadow=0;dashed=0;align=center;html=1;verticalAlign=top;shape=mxgraph.electrical.radio.aerial_-_antenna_2;rotation=0;" vertex="1" parent="1">
          <mxGeometry x="60" y="100" width="79" height="100" as="geometry" />
        </mxCell>
        <mxCell id="dmkmYUtVyIrdMDEeAMTl-3" value="" style="endArrow=none;html=1;rounded=0;" edge="1" parent="1">
          <mxGeometry width="50" height="50" relative="1" as="geometry">
            <mxPoint x="260" y="200" as="sourcePoint" />
            <mxPoint x="360" y="200" as="targetPoint" />
          </mxGeometry>
        </mxCell>
        <mxCell id="dmkmYUtVyIrdMDEeAMTl-4" value="" style="endArrow=none;html=1;rounded=0;" edge="1" parent="1">
          <mxGeometry width="50" height="50" relative="1" as="geometry">
            <mxPoint x="100" y="199" as="sourcePoint" />
            <mxPoint x="100" y="320" as="targetPoint" />
          </mxGeometry>
        </mxCell>
        <mxCell id="dmkmYUtVyIrdMDEeAMTl-5" value="" style="endArrow=none;html=1;rounded=0;entryX=0;entryY=0.5;entryDx=0;entryDy=0;entryPerimeter=0;" edge="1" parent="1" target="dmkmYUtVyIrdMDEeAMTl-6">
          <mxGeometry width="50" height="50" relative="1" as="geometry">
            <mxPoint x="360" y="200" as="sourcePoint" />
            <mxPoint x="450" y="150" as="targetPoint" />
          </mxGeometry>
        </mxCell>
        <mxCell id="dmkmYUtVyIrdMDEeAMTl-6" value="" style="verticalLabelPosition=bottom;shadow=0;dashed=0;align=center;html=1;verticalAlign=top;shape=mxgraph.electrical.abstract.sum;" vertex="1" parent="1">
          <mxGeometry x="510" y="175" width="50" height="50" as="geometry" />
        </mxCell>
        <mxCell id="dmkmYUtVyIrdMDEeAMTl-8" value="" style="endArrow=classic;html=1;rounded=0;exitX=1;exitY=0.5;exitDx=0;exitDy=0;exitPerimeter=0;" edge="1" parent="1" source="dmkmYUtVyIrdMDEeAMTl-6">
          <mxGeometry width="50" height="50" relative="1" as="geometry">
            <mxPoint x="400" y="200" as="sourcePoint" />
            <mxPoint x="770" y="200" as="targetPoint" />
          </mxGeometry>
        </mxCell>
        <mxCell id="dmkmYUtVyIrdMDEeAMTl-9" value="&lt;font style=&quot;font-size: 16px;&quot;&gt;Adaptive Filter&lt;/font&gt;" style="rounded=0;whiteSpace=wrap;html=1;" vertex="1" parent="1">
          <mxGeometry x="330" y="275" width="120" height="90" as="geometry" />
        </mxCell>
        <mxCell id="dmkmYUtVyIrdMDEeAMTl-10" value="" style="endArrow=none;html=1;rounded=0;entryX=0;entryY=0.5;entryDx=0;entryDy=0;" edge="1" parent="1" target="dmkmYUtVyIrdMDEeAMTl-9">
          <mxGeometry width="50" height="50" relative="1" as="geometry">
            <mxPoint x="100" y="320" as="sourcePoint" />
            <mxPoint x="450" y="350" as="targetPoint" />
          </mxGeometry>
        </mxCell>
        <mxCell id="dmkmYUtVyIrdMDEeAMTl-12" value="" style="endArrow=none;html=1;rounded=0;exitX=1;exitY=0.5;exitDx=0;exitDy=0;" edge="1" parent="1" source="dmkmYUtVyIrdMDEeAMTl-9">
          <mxGeometry width="50" height="50" relative="1" as="geometry">
            <mxPoint x="490" y="325" as="sourcePoint" />
            <mxPoint x="535" y="320" as="targetPoint" />
          </mxGeometry>
        </mxCell>
        <mxCell id="dmkmYUtVyIrdMDEeAMTl-13" value="" style="endArrow=classic;html=1;rounded=0;entryX=0.5;entryY=1;entryDx=0;entryDy=0;entryPerimeter=0;" edge="1" parent="1" target="dmkmYUtVyIrdMDEeAMTl-6">
          <mxGeometry width="50" height="50" relative="1" as="geometry">
            <mxPoint x="535" y="320" as="sourcePoint" />
            <mxPoint x="450" y="350" as="targetPoint" />
          </mxGeometry>
        </mxCell>
        <mxCell id="dmkmYUtVyIrdMDEeAMTl-14" value="" style="shape=waypoint;sketch=0;fillStyle=solid;size=6;pointerEvents=1;points=[];fillColor=none;resizable=0;rotatable=0;perimeter=centerPerimeter;snapToPoint=1;" vertex="1" parent="1">
          <mxGeometry x="650" y="190" width="20" height="20" as="geometry" />
        </mxCell>
        <mxCell id="dmkmYUtVyIrdMDEeAMTl-15" value="" style="endArrow=none;html=1;rounded=0;entryX=0.376;entryY=0.821;entryDx=0;entryDy=0;entryPerimeter=0;" edge="1" parent="1" target="dmkmYUtVyIrdMDEeAMTl-14">
          <mxGeometry width="50" height="50" relative="1" as="geometry">
            <mxPoint x="660" y="410" as="sourcePoint" />
            <mxPoint x="640" y="250" as="targetPoint" />
          </mxGeometry>
        </mxCell>
        <mxCell id="dmkmYUtVyIrdMDEeAMTl-19" value="" style="endArrow=none;html=1;rounded=0;" edge="1" parent="1">
          <mxGeometry width="50" height="50" relative="1" as="geometry">
            <mxPoint x="340" y="410" as="sourcePoint" />
            <mxPoint x="660" y="410" as="targetPoint" />
          </mxGeometry>
        </mxCell>
      </root>
    </mxGraphModel>
  </diagram>
</mxfile>
